<?xml version="1.0" encoding="UTF-8"?>
<svg id="_Слой_1" data-name="Слой 1" xmlns="http://www.w3.org/2000/svg" viewBox="0 0 499.94 328.9">
  <defs>
    <style>
      .cls-1 {
        fill: #fea5a5;
      }

      .cls-2 {
        fill: #fea6a6;
      }
    </style>
  </defs>
  <g>
    <path class="cls-2" d="M25.34,81.1c12.04-14.33,37.25-16.96,50.24-2.55,1.6,1.77,2.79,4.49,4.1,5.94.89.99,2.17-1.99,3.03-2.94,17.46-19.47,52.32-16.65,62.66,8.77,6.13,15.06,3.37,48.27,3.44,65.67.05,13.29,0,26.76,0,40.04,0,42.78.05,85.57.02,128.35h-25.34V112.2c-.46-12.63-6.75-23.04-20.85-19.93-11.81,2.6-14.82,15.97-15.55,26.38v205.73h-25.35V114.51c-.76-10.91-3.48-22.89-16.82-22.85-13.66.04-18.96,12.96-19.58,24.69v208.03H0V71.88h24.65s.69.64.69.69v8.52Z"/>
    <g>
      <path class="cls-2" d="M207.35,70.04v158.51c11.13-14.52,30.42-17.62,47.46-13.14,37.09,9.75,48.28,61.48,27.74,90.88-17.24,24.69-53.68,31.6-75.21,8.42v10.6h-25.34V70.04h25.34ZM233.06,236.52c-36.8,3.35-36.67,66.44-.13,69.43,45.15,3.69,44.1-73.43.13-69.43Z"/>
      <path class="cls-1" d="M272.78,33.18v38.71h18.89v23.04h-18.89v85.7h-25.34v-85.7h-10.37s-.69-.64-.69-.69v-22.35h11.06v-38.71h25.34Z"/>
      <g>
        <polygon class="cls-1" points="413.78 219.79 344.66 305.49 408.71 305.49 408.71 328.53 294.43 328.53 364.47 243.29 309.18 243.29 309.18 219.79 413.78 219.79"/>
        <path class="cls-1" d="M453.86,229.47l4.6-4.84c8.51-7.33,19.29-9.29,30.15-6.64,1.97.48,11.28,3.81,11.33,5.7l-11.29,22.35c-10.37-8.1-25.98-6.66-31.65,6.15-2.36,5.34-2.44,10.96-3.16,16.65l.02,59.69h-25.34v-108.74h25.34v9.68Z"/>
      </g>
    </g>
  </g>
  <path class="cls-2" d="M499.94,0v180.62h-25.34v-10.6c-2.57,2.1-4.7,4.7-7.41,6.64-13.18,9.44-26.46,6.88-41.68,7.16-23.39.43-49.57,1.85-72.8.5-64.44-3.75-65.81-110-1.38-115.23,31.09,1.73,64.59-2.25,95.39.02,9.17.68,17.89,4.7,24.38,11.1l3.5,4.1V0h25.34ZM386.96,91.83c-9.9.12-21.85-.45-31.48.31-33.39,2.65-35.15,66.32.92,69.15h93.11c35.24-2.76,37.33-66.83-2.79-69.59-18.67-1.29-40.78-.11-59.76.13Z"/>
</svg>